<mxfile host="Electron" modified="2023-05-25T13:15:59.935Z" agent="Mozilla/5.0 (X11; Linux x86_64) AppleWebKit/537.36 (KHTML, like Gecko) draw.io/21.2.8 Chrome/112.0.5615.165 Electron/24.2.0 Safari/537.36" etag="sDWuaeUadV959DKDDC_b" version="21.2.8" type="device">
  <diagram name="Page-1" id="sybCZMNGSA1a6AI2egQm">
    <mxGraphModel dx="1806" dy="642" grid="1" gridSize="10" guides="1" tooltips="1" connect="1" arrows="1" fold="1" page="1" pageScale="1" pageWidth="850" pageHeight="1100" math="0" shadow="0">
      <root>
        <mxCell id="0" />
        <mxCell id="1" parent="0" />
        <mxCell id="GcXt5cn8c_QAVnjNp5vc-2" value="" style="rounded=1;whiteSpace=wrap;html=1;" vertex="1" parent="1">
          <mxGeometry x="145" y="280" width="310" height="190" as="geometry" />
        </mxCell>
        <mxCell id="GcXt5cn8c_QAVnjNp5vc-57" value="" style="rounded=1;whiteSpace=wrap;html=1;" vertex="1" parent="1">
          <mxGeometry x="165" y="345" width="90" height="110" as="geometry" />
        </mxCell>
        <mxCell id="GcXt5cn8c_QAVnjNp5vc-6" value="" style="shape=actor;whiteSpace=wrap;html=1;" vertex="1" parent="1">
          <mxGeometry x="5" y="309.5" width="40" height="50" as="geometry" />
        </mxCell>
        <mxCell id="GcXt5cn8c_QAVnjNp5vc-12" value="" style="endArrow=classic;html=1;rounded=0;entryX=0;entryY=0.75;entryDx=0;entryDy=0;exitX=0.999;exitY=0.597;exitDx=0;exitDy=0;exitPerimeter=0;" edge="1" parent="1" source="GcXt5cn8c_QAVnjNp5vc-34" target="GcXt5cn8c_QAVnjNp5vc-16">
          <mxGeometry width="50" height="50" relative="1" as="geometry">
            <mxPoint x="45" y="490" as="sourcePoint" />
            <mxPoint x="115" y="450" as="targetPoint" />
          </mxGeometry>
        </mxCell>
        <mxCell id="GcXt5cn8c_QAVnjNp5vc-13" value="" style="endArrow=classic;html=1;rounded=0;exitX=1;exitY=0.75;exitDx=0;exitDy=0;" edge="1" parent="1" source="GcXt5cn8c_QAVnjNp5vc-33">
          <mxGeometry width="50" height="50" relative="1" as="geometry">
            <mxPoint x="35" y="389.5" as="sourcePoint" />
            <mxPoint x="185" y="415" as="targetPoint" />
          </mxGeometry>
        </mxCell>
        <mxCell id="GcXt5cn8c_QAVnjNp5vc-14" value="" style="endArrow=classic;html=1;rounded=0;entryX=0;entryY=0.25;entryDx=0;entryDy=0;exitX=1;exitY=0.75;exitDx=0;exitDy=0;" edge="1" parent="1" source="GcXt5cn8c_QAVnjNp5vc-6" target="GcXt5cn8c_QAVnjNp5vc-16">
          <mxGeometry width="50" height="50" relative="1" as="geometry">
            <mxPoint x="35" y="290" as="sourcePoint" />
            <mxPoint x="115" y="320" as="targetPoint" />
          </mxGeometry>
        </mxCell>
        <mxCell id="GcXt5cn8c_QAVnjNp5vc-16" value="" style="shape=image;verticalLabelPosition=bottom;verticalAlign=top;imageAspect=0;image=https://cdn-icons-png.flaticon.com/512/4245/4245948.png" vertex="1" parent="1">
          <mxGeometry x="185" y="390" width="50" height="50" as="geometry" />
        </mxCell>
        <mxCell id="GcXt5cn8c_QAVnjNp5vc-26" value="&lt;b&gt;CADI_HELPDESK&lt;/b&gt;&lt;br&gt;cadidb.epfl.ch" style="shape=cylinder3;whiteSpace=wrap;html=1;boundedLbl=1;backgroundOutline=1;size=15;" vertex="1" parent="1">
          <mxGeometry x="570" y="280" width="120" height="100" as="geometry" />
        </mxCell>
        <mxCell id="GcXt5cn8c_QAVnjNp5vc-33" value="" style="shape=actor;whiteSpace=wrap;html=1;" vertex="1" parent="1">
          <mxGeometry x="-5" y="379.5" width="40" height="50" as="geometry" />
        </mxCell>
        <mxCell id="GcXt5cn8c_QAVnjNp5vc-34" value="" style="shape=actor;whiteSpace=wrap;html=1;" vertex="1" parent="1">
          <mxGeometry x="5" y="449.5" width="40" height="50" as="geometry" />
        </mxCell>
        <mxCell id="GcXt5cn8c_QAVnjNp5vc-37" value="&lt;b&gt;LDAP&lt;br&gt;&lt;/b&gt;ldap.epfl.ch" style="rounded=1;whiteSpace=wrap;html=1;" vertex="1" parent="1">
          <mxGeometry x="505" y="390" width="70" height="50" as="geometry" />
        </mxCell>
        <mxCell id="GcXt5cn8c_QAVnjNp5vc-43" value="atari.epfl.ch" style="text;html=1;align=center;verticalAlign=middle;resizable=0;points=[];autosize=1;strokeColor=none;fillColor=none;" vertex="1" parent="1">
          <mxGeometry x="255" y="300" width="90" height="30" as="geometry" />
        </mxCell>
        <mxCell id="GcXt5cn8c_QAVnjNp5vc-47" value="" style="shape=image;verticalLabelPosition=bottom;verticalAlign=top;imageAspect=0;image=https://cdn-icons-png.flaticon.com/512/28/28286.png;movable=1;resizable=1;rotatable=1;deletable=1;editable=1;locked=0;connectable=1;" vertex="1" parent="1">
          <mxGeometry x="565" y="449.5" width="115" height="70" as="geometry" />
        </mxCell>
        <mxCell id="GcXt5cn8c_QAVnjNp5vc-50" value="&lt;b&gt;API&lt;/b&gt;&lt;br&gt;search-api.epfl.ch&amp;nbsp;" style="text;html=1;align=center;verticalAlign=middle;resizable=1;points=[];autosize=1;strokeColor=none;fillColor=none;movable=1;rotatable=1;deletable=1;editable=1;locked=0;connectable=1;" vertex="1" parent="1">
          <mxGeometry x="562.5" y="464.5" width="120" height="40" as="geometry" />
        </mxCell>
        <mxCell id="GcXt5cn8c_QAVnjNp5vc-51" value="&lt;b&gt;ATARI&lt;/b&gt;" style="text;html=1;align=center;verticalAlign=middle;resizable=0;points=[];autosize=1;strokeColor=none;fillColor=none;" vertex="1" parent="1">
          <mxGeometry x="270" y="284.5" width="60" height="30" as="geometry" />
        </mxCell>
        <mxCell id="GcXt5cn8c_QAVnjNp5vc-52" value="User" style="text;html=1;align=center;verticalAlign=middle;resizable=0;points=[];autosize=1;strokeColor=none;fillColor=none;" vertex="1" parent="1">
          <mxGeometry y="330" width="50" height="30" as="geometry" />
        </mxCell>
        <mxCell id="GcXt5cn8c_QAVnjNp5vc-53" value="User" style="text;html=1;align=center;verticalAlign=middle;resizable=0;points=[];autosize=1;strokeColor=none;fillColor=none;" vertex="1" parent="1">
          <mxGeometry x="-10" y="399.5" width="50" height="30" as="geometry" />
        </mxCell>
        <mxCell id="GcXt5cn8c_QAVnjNp5vc-54" value="User" style="text;html=1;align=center;verticalAlign=middle;resizable=0;points=[];autosize=1;strokeColor=none;fillColor=none;" vertex="1" parent="1">
          <mxGeometry y="469.5" width="50" height="30" as="geometry" />
        </mxCell>
        <mxCell id="GcXt5cn8c_QAVnjNp5vc-59" value="Browser" style="text;html=1;align=center;verticalAlign=middle;resizable=0;points=[];autosize=1;strokeColor=none;fillColor=none;spacingBottom=0;spacingTop=10;" vertex="1" parent="1">
          <mxGeometry x="175" y="359.5" width="70" height="30" as="geometry" />
        </mxCell>
        <mxCell id="GcXt5cn8c_QAVnjNp5vc-60" value="&lt;b&gt;Frontend&lt;/b&gt;" style="text;html=1;align=center;verticalAlign=middle;resizable=0;points=[];autosize=1;strokeColor=none;fillColor=none;" vertex="1" parent="1">
          <mxGeometry x="170" y="345" width="80" height="30" as="geometry" />
        </mxCell>
        <mxCell id="GcXt5cn8c_QAVnjNp5vc-61" value="" style="rounded=1;whiteSpace=wrap;html=1;" vertex="1" parent="1">
          <mxGeometry x="285" y="345" width="150" height="110" as="geometry" />
        </mxCell>
        <mxCell id="GcXt5cn8c_QAVnjNp5vc-62" value="&lt;b&gt;Backend&lt;/b&gt;" style="text;html=1;align=center;verticalAlign=middle;resizable=0;points=[];autosize=1;strokeColor=none;fillColor=none;" vertex="1" parent="1">
          <mxGeometry x="325" y="345" width="70" height="30" as="geometry" />
        </mxCell>
        <mxCell id="GcXt5cn8c_QAVnjNp5vc-64" value="Meteor app" style="text;html=1;align=center;verticalAlign=middle;resizable=0;points=[];autosize=1;strokeColor=none;fillColor=none;spacingTop=10;" vertex="1" parent="1">
          <mxGeometry x="320" y="355" width="80" height="40" as="geometry" />
        </mxCell>
        <mxCell id="GcXt5cn8c_QAVnjNp5vc-19" value="" style="shape=image;verticalLabelPosition=bottom;verticalAlign=top;imageAspect=0;image=https://cdn-icons-png.flaticon.com/512/4179/4179993.png" vertex="1" parent="1">
          <mxGeometry x="375" y="390" width="50" height="50" as="geometry" />
        </mxCell>
        <mxCell id="GcXt5cn8c_QAVnjNp5vc-31" value="" style="shape=image;verticalLabelPosition=bottom;verticalAlign=top;imageAspect=0;image=https://cdn-icons-png.flaticon.com/512/9095/9095003.png" vertex="1" parent="1">
          <mxGeometry x="295" y="390" width="50" height="50" as="geometry" />
        </mxCell>
        <mxCell id="GcXt5cn8c_QAVnjNp5vc-35" value="" style="endArrow=classic;html=1;rounded=0;entryX=0;entryY=0.25;entryDx=0;entryDy=0;exitX=1;exitY=0.25;exitDx=0;exitDy=0;" edge="1" parent="1" source="GcXt5cn8c_QAVnjNp5vc-31" target="GcXt5cn8c_QAVnjNp5vc-19">
          <mxGeometry width="50" height="50" relative="1" as="geometry">
            <mxPoint x="345" y="401" as="sourcePoint" />
            <mxPoint x="370" y="401" as="targetPoint" />
          </mxGeometry>
        </mxCell>
        <mxCell id="GcXt5cn8c_QAVnjNp5vc-36" value="" style="endArrow=classic;html=1;rounded=0;entryX=1;entryY=0.75;entryDx=0;entryDy=0;exitX=0;exitY=0.75;exitDx=0;exitDy=0;" edge="1" parent="1" source="GcXt5cn8c_QAVnjNp5vc-19" target="GcXt5cn8c_QAVnjNp5vc-31">
          <mxGeometry width="50" height="50" relative="1" as="geometry">
            <mxPoint x="375" y="421" as="sourcePoint" />
            <mxPoint x="345" y="431.24" as="targetPoint" />
          </mxGeometry>
        </mxCell>
        <mxCell id="GcXt5cn8c_QAVnjNp5vc-22" value="" style="endArrow=classic;html=1;rounded=0;entryX=0;entryY=0.25;entryDx=0;entryDy=0;" edge="1" parent="1" target="GcXt5cn8c_QAVnjNp5vc-31">
          <mxGeometry width="50" height="50" relative="1" as="geometry">
            <mxPoint x="235" y="402" as="sourcePoint" />
            <mxPoint x="300" y="404.21999999999997" as="targetPoint" />
          </mxGeometry>
        </mxCell>
        <mxCell id="GcXt5cn8c_QAVnjNp5vc-25" value="" style="endArrow=classic;html=1;rounded=0;entryX=1;entryY=0.75;entryDx=0;entryDy=0;exitX=0;exitY=0.75;exitDx=0;exitDy=0;" edge="1" parent="1" source="GcXt5cn8c_QAVnjNp5vc-31" target="GcXt5cn8c_QAVnjNp5vc-16">
          <mxGeometry width="50" height="50" relative="1" as="geometry">
            <mxPoint x="330" y="440" as="sourcePoint" />
            <mxPoint x="265" y="440" as="targetPoint" />
          </mxGeometry>
        </mxCell>
        <mxCell id="GcXt5cn8c_QAVnjNp5vc-32" value="" style="endArrow=classic;html=1;rounded=0;entryX=1;entryY=0.25;entryDx=0;entryDy=0;exitX=-0.033;exitY=0.574;exitDx=0;exitDy=0;exitPerimeter=0;" edge="1" parent="1" source="GcXt5cn8c_QAVnjNp5vc-26" target="GcXt5cn8c_QAVnjNp5vc-19">
          <mxGeometry width="50" height="50" relative="1" as="geometry">
            <mxPoint x="605" y="350" as="sourcePoint" />
            <mxPoint x="665" y="360" as="targetPoint" />
          </mxGeometry>
        </mxCell>
        <mxCell id="GcXt5cn8c_QAVnjNp5vc-38" value="" style="endArrow=classic;html=1;rounded=0;entryX=1;entryY=0.5;entryDx=0;entryDy=0;exitX=0;exitY=0.5;exitDx=0;exitDy=0;" edge="1" parent="1" source="GcXt5cn8c_QAVnjNp5vc-37" target="GcXt5cn8c_QAVnjNp5vc-19">
          <mxGeometry width="50" height="50" relative="1" as="geometry">
            <mxPoint x="295" y="340" as="sourcePoint" />
            <mxPoint x="345" y="290" as="targetPoint" />
          </mxGeometry>
        </mxCell>
        <mxCell id="GcXt5cn8c_QAVnjNp5vc-41" value="" style="endArrow=classic;html=1;rounded=0;exitX=0;exitY=0.5;exitDx=0;exitDy=0;entryX=1;entryY=0.75;entryDx=0;entryDy=0;" edge="1" parent="1" source="GcXt5cn8c_QAVnjNp5vc-47" target="GcXt5cn8c_QAVnjNp5vc-19">
          <mxGeometry width="50" height="50" relative="1" as="geometry">
            <mxPoint x="555" y="474.5" as="sourcePoint" />
            <mxPoint x="345" y="290" as="targetPoint" />
          </mxGeometry>
        </mxCell>
      </root>
    </mxGraphModel>
  </diagram>
</mxfile>
